
<global>
amp_veltrack=0
ampeg_release=0.35
master-volume=10
</global>

<group>
group_label=Group_0-42
lpc_hicc1=42
lpc_locc1=0

<region>
hikey=B3
hivel=127
lokey=A#3
loop_end=196307
loop_mode=loop_continuous
loop_start=52679
loop_xfade=19892
lovel=1
lpc=YAz9QhaPTcMMbppCgk8CwryTv0FuI7jAfDaJQePbC0BRmh9AjJi3wGHRIj9dnatAWYgUQa30VMBa2kjBnXoLwTce2UD7a1BBIuoVwA74O8FD4rHAckfPQMYroT/4EBxA
lpc_rms=-52.88
pitch_keycenter=A#3
sample=Trumpet_muted_sustain_PP_A#3.opus
tune=-14
</region>

<region>
hikey=B4
hivel=127
lokey=A#4
loop_end=198393
loop_mode=loop_continuous
loop_start=53239
loop_xfade=20104
lovel=1
lpc=EObgQRlSRMKjN6lB/FbFwBcGz0AlW8W/Q845QCKV7b5XCOa9brDnv3q5NL4Fu+s/gFO/P9WLpL9DdirAonNpv+xAHECvsjBArJlTvrLuUMDUEae/FJGoP/StLkDgae2/
lpc_rms=-65.72
pitch_keycenter=A#4
sample=Trumpet_muted_sustain_PP_A#4.opus
tune=-8
</region>

<region>
hikey=B5
hivel=127
lokey=A#5
loop_end=198393
loop_mode=loop_continuous
loop_start=53239
loop_xfade=20104
lovel=1
lpc=a5kvQWNemMHoHpJBYM90wepLPkHgu+PAYkcjQJ9kr7+QVhZA/ztsvum7CsB5C6k+xunHP+m6XT6SJqS/UEfAv1Y4NkDQDCe/mZ8tPyBYXcDSuJpA/aqJwF+gjUDHCIzA
lpc_rms=-67.10
pitch_keycenter=A#5
sample=Trumpet_muted_sustain_PP_A#5.opus
tune=+1
</region>

<region>
hivel=127
key=A4
loop_end=198393
loop_mode=loop_continuous
loop_start=53239
loop_xfade=20104
lovel=1
lpc=G4RTQpkqv8K4qj5CvH46wa6ZFUEWCeXAUoq4QJNbAcBE/wJALTyMvlX3zj+Oht8+HdiHvvCHDsBVOmC/teISv7gVTUAiKOE/FV/gv1qHg8AXaZY9eVI2QIHPJkC6bBTA
lpc_rms=-59.69
sample=Trumpet_muted_sustain_PP_A4.opus
tune=+4
</region>

<region>
hivel=127
key=A5
loop_end=198393
loop_mode=loop_continuous
loop_start=53239
loop_xfade=20104
lovel=1
lpc=qMCfQY3NHsI6yAdCXcmtwSDkfEEZnhPBe3L1QBhBKMH6qIdANqjNQFAD98CpeRhAIHJHQHb3nMCd9WS98R2DQDYgBsDNHD+/zlzCQOnIOMHRZq9AxhpiQIvZMT91g6HA
lpc_rms=-63.15
sample=Trumpet_muted_sustain_PP_A5.opus
tune=+24
</region>

<region>
hikey=C#4
hivel=127
lokey=C4
loop_end=198153
loop_mode=loop_continuous
loop_start=53175
loop_xfade=20079
lovel=1
lpc=N7QYQmhiasKO7pZBzZImwSjSEkExNYI+0peqQDBOmz5rUWy+VHwbwFBvr78P6k88hF4YQN+9ij6abwjAn8Czv+s2TT8sWC1A29kvPwZSAcAK8rm/otycPr8Gwz/ce46+
lpc_rms=-63.70
sample=Trumpet_muted_sustain_PP_C4.opus
tune=+37
</region>

<region>
hikey=C#5
hivel=127
lokey=C5
loop_end=198393
loop_mode=loop_continuous
loop_start=53239
loop_xfade=20104
lovel=1
lpc=YpS7QdzWNsLh79lBTFDpwFDdP0AoRjfAh68/QIkl17y4AxG9trGkv2XPkb1r7t4/thPoP/neyL/oHyjA4XeEvzQsGEAL8/I/ujPSvrJPC8AxFM69kpTcPXjZbUB/qjrA
lpc_rms=-66.03
pitch_keycenter=C5
sample=Trumpet_muted_sustain_PP_C5.opus
tune=+22
</region>

<region>
hikey=F6
hivel=127
lokey=C6
loop_end=198393
loop_mode=loop_continuous
loop_start=53239
loop_xfade=20104
lovel=1
lpc=qoZxQQTInsGCHJhBHLVvwSQHG0FHGcHAaFK2QKIJqMDUfmZAxNQVwAkUFD/YHyM/XwIBPqUUv74ezve+etaNP/DHIMBuRH1AreRQwBiFN0Bo15nAChLaQEm7BcEZg2e/
lpc_rms=-64.46
pitch_keycenter=C6
sample=Trumpet_muted_sustain_PP_C6.opus
tune=+20
</region>

<region>
hikey=D#4
hivel=127
lokey=D4
loop_end=198393
loop_mode=loop_continuous
loop_start=53239
loop_xfade=20104
lovel=1
lpc=M7gnQsZvf8IciLtB5/FJwSbPJ0HlbCjAS3ejQFl8mL8oGXI+ueQgwAjddL2PiJ0/y3gYQKPbET/pVBLAfbq+v4qb1j+OUVJABTPLvT9cTcDQIg/A2LZsP9S7hD8pCDU/
lpc_rms=-61.78
pitch_keycenter=D4
sample=Trumpet_muted_sustain_PP_D4.opus
tune=+19
</region>

<region>
hikey=D#5
hivel=127
lokey=D5
loop_end=198393
loop_mode=loop_continuous
loop_start=53239
loop_xfade=20104
lovel=1
lpc=xlOFQW6BA8Lqx6tB/Q7/wNu6N0BqpC+/G/hBQP+7tr+2Wwe/bydhv1xOwr633Os+VqOYP28nib5TIb2/hZebvnuK2D+8UNg/hZ+bvb1pwr+ReIu/s+Vqv+BWZEBD0f2/
lpc_rms=-68.30
pitch_keycenter=D5
sample=Trumpet_muted_sustain_PP_D5.opus
tune=+10
</region>

<region>
hivel=127
key=E4
loop_end=198393
loop_mode=loop_continuous
loop_start=53239
loop_xfade=20104
lovel=1
lpc=GgMEQra9WsIMsqxBEQEEwQ2A+EASUru/S6RrQKEOm7/sV/0+5P6Qv9/w1T3BMKk/ZsHxP35UL79qJS/AgL1ev/xEwz9x3h9AGrUyv5t+MsBJ4pm/Y5+xPyOLAD67RGE/
lpc_rms=-64.24
sample=Trumpet_muted_sustain_PP_E4.opus
tune=+19
</region>

<region>
hivel=127
key=E5
loop_end=198393
loop_mode=loop_continuous
loop_start=53239
loop_xfade=20104
lovel=1
lpc=v+KkQYTiNcJblyNCs+OywUsuCUEfcNu/knxRP+apScAW00xA52CzPCeM9L+fQY4+8R/dP4GXpz7RDv2/LP0Bv8qKbj+vrShAY+nkPts8UcDWiXa/GQI8P2SJh0BpTWPA
lpc_rms=-63.68
sample=Trumpet_muted_sustain_PP_E5.opus
tune=+11
</region>

<region>
hikey=F#4
hivel=127
lokey=F4
loop_end=198393
loop_mode=loop_continuous
loop_start=53239
loop_xfade=20104
lovel=1
lpc=iZBpQgC4tsLjdvdBf9JZwaXEVEELb1fAXGzIQPmw/L6y4/8/SK7HPcw6Tj+3s8M/EyvKP/D8ib+Vnn7AxyhWwBcWAEDLOktAXxRsv3S8QcBMYsi/EOL+P92zhD/Dvog/
lpc_rms=-59.99
pitch_keycenter=F4
sample=Trumpet_muted_sustain_PP_F4.opus
tune=-5
</region>

<region>
hikey=F#5
hivel=127
lokey=F5
loop_end=198393
loop_mode=loop_continuous
loop_start=53239
loop_xfade=20104
lovel=1
lpc=S1lcQR+FxsGOEYZBeuQVwbIL2EDNVwvAxdJ9v/6pQr+xjXg/6on2PokD6T6Ndca+YlWXP3dArr9KhQ3AgQvMP4WcGkAoCPk+O8QDwAOIOcBx8NE/qfNEQPenUj8W8FHA
lpc_rms=-69.28
pitch_keycenter=F5
sample=Trumpet_muted_sustain_PP_F5.opus
tune=-4
</region>

<region>
hikey=A3
hivel=127
lokey=G#3
loop_end=195381
loop_mode=loop_continuous
loop_start=52430
loop_xfade=19799
lovel=1
lpc=6Y7gQpGCScNspbtClOYmwsFp8UGfdtk+ydaOQWQNlMD6eiA/ccXbwD0jgcCBvXZAuGksQcmHb7+KAi/BrQkFwWG9+UAveCdBaoIQv+vEgsG8QfO/P3/OQBd2zEDuFirA
lpc_rms=-52.84
pitch_keycenter=G#3
sample=Trumpet_muted_sustain_PP_G#3.opus
tune=-29
</region>

<region>
hikey=G#4
hivel=127
lokey=G4
loop_end=198393
loop_mode=loop_continuous
loop_start=53239
loop_xfade=20104
lovel=1
lpc=jp0FQgPGZ8ILztJBMqgHwUfK1EDo3BnAia6FQMj5+z13hbk+xnDSv6zWyb4Dppk/iq3FPy7QXb9jNyzA4+zMv5TxDUDF/EtAFe76vrLPMsC3Lpm/LTnnP3eAPL/QDaM/
lpc_rms=-63.95
pitch_keycenter=G4
sample=Trumpet_muted_sustain_PP_G4.opus
tune=+20
</region>

<region>
hikey=G#5
hivel=127
lokey=G5
loop_end=198393
loop_mode=loop_continuous
loop_start=53239
loop_xfade=20104
lovel=1
lpc=YJ++Qd03Q8KlTytCvATbwetcW0HDNkTAl/JSvoXDEMCjSMVAVZU0wBx9DcDmOJ4/dxEAQJpNOD5EtznACSPMv51xTz/YsXdAFDogP+C4dMA+09k+kjlxP09/iEAu5abA
lpc_rms=-62.45
pitch_keycenter=G5
sample=Trumpet_muted_sustain_PP_G5.opus
tune=+32
</region>
</group>

<group>
group_label=Group_43-86
lpc_hicc1=86
lpc_locc1=43

<region>
hikey=B3
hivel=127
lokey=A#3
loop_end=196912
loop_mode=loop_continuous
loop_start=52841
loop_xfade=19954
lovel=1
lpc=hNsoQjamx8Ls/8pCU3yPwkb4FUKvgDvBwImNQHck0sCH4dVA4uWrwOzY/j/67dw/FeGCP7v0Mb/yq0fAUu/sv4zgVECgTsRAGbaEwI+ilsC3DYlA52KGP6FxMMDTeYY/
lpc_rms=-53.47
pitch_keycenter=A#3
sample=Trumpet_muted_sustain_MF_A#3.opus
tune=+7
</region>

<region>
hikey=B4
hivel=127
lokey=A#4
loop_end=197540
loop_mode=loop_continuous
loop_start=53010
loop_xfade=20017
lovel=1
lpc=DR7CQXoDdcKJ5I5CWFprwujpDkIddCvBWACYwL20kEAcMAlAGO9jwFXyO0AFzi6+xTHBv5apLkCsjT7AYM3FvntqjUCPPU7AG4/Vv9OvJEAHpGHAvHn4QAC3EMGZm5FA
lpc_rms=-56.65
pitch_keycenter=A#4
sample=Trumpet_muted_sustain_MF_A#4.opus
tune=-23
</region>

<region>
hikey=B5
hivel=127
lokey=A#5
loop_end=198393
loop_mode=loop_continuous
loop_start=53239
loop_xfade=20104
lovel=1
lpc=OVULQcYDhsF3JJZBhXNuwW++CUGlq03A+7OxP9P+XMB85r9ATrigwBrAdT8u3CxAv8BhwGbA4z/dof0/BeSewK+7iUAnnD6/Q5+vvw4yCL9J6p9AnD8PwfuLHUGdG8XA
lpc_rms=-59.22
pitch_keycenter=A#5
sample=Trumpet_muted_sustain_MF_A#5.opus
tune=-15
</region>

<region>
hivel=127
key=A4
loop_end=197893
loop_mode=loop_continuous
loop_start=53105
loop_xfade=20053
lovel=1
lpc=o7xhQb8AFcKOUD9C1vAkwqpXzkFNnEPBJ1XlQM5jIMHWFitBEGmlwCFOAsCSd7RAiW5nwFqdMz5tTK6+oW9PP0T3pz8jEdG/kDC2PzrH57+oh08/aWkOQF7TJMDMcD8/
lpc_rms=-58.36
sample=Trumpet_muted_sustain_MF_A4.opus
tune=+9
</region>

<region>
hivel=127
key=A5
loop_end=198393
loop_mode=loop_continuous
loop_start=53239
loop_xfade=20104
lovel=1
lpc=skO/QNcLQcENLWdBohNiwckYUUF0lCnBQxUqQXJRMMFtLB1B3l3bwMuZpkCbG3jAQfiPQLAepcCsgJZAnNAawAqUvz81hmC/aMj4P9UwW8CQXmZAg999v5Jtoz6em4q+
lpc_rms=-56.44
sample=Trumpet_muted_sustain_MF_A5.opus
tune=+5
</region>

<region>
hikey=C#4
hivel=127
lokey=C4
loop_end=198364
loop_mode=loop_continuous
loop_start=53231
loop_xfade=20101
lovel=1
lpc=oB6uQbXPScJ5ZjRCUMTBwdYVK0G6opzADcOAQBusDsCN/ao/Y54jwGJ0kT9MZrk/ZTGLPxrFF8D26ay/PrymPwAWrD8q6qg/o18qwMqa3L+/1gFAIxhMP+f9dL985dQ+
lpc_rms=-60.66
sample=Trumpet_muted_sustain_MF_C4.opus
tune=+22
</region>

<region>
hikey=C#5
hivel=127
lokey=C5
loop_end=197053
loop_mode=loop_continuous
loop_start=52879
loop_xfade=19968
lovel=1
lpc=SLUfQacc0sFVXRdCzuEfwuke/EEIjZbBqj3FQF5CqT89AQTA4guXvkf3AkDweU+/B0yqPmYEEz+0Ui+/cSK+voKHpT9B9jO/Ecnmv8knJkBDez3AI0oIQMDYzD3x59u8
lpc_rms=-59.82
pitch_keycenter=C5
sample=Trumpet_muted_sustain_MF_C5.opus
tune=+16
</region>

<region>
hikey=F6
hivel=127
lokey=C6
loop_end=198346
loop_mode=loop_continuous
loop_start=53226
loop_xfade=20099
lovel=1
lpc=Ax1HQU7uyMBnZMdApHWwwDVxjEDmm3jAXn5oQPUqPsBm2ihADucNwMzvqT+5O12/H7cTP49+hj6svDm/xx6RP6Y+AMAVICRAH7stwPJDU0BHjm3AP7d/QJf/n8BjZczA
lpc_rms=-56.64
pitch_keycenter=C6
sample=Trumpet_muted_sustain_MF_C6.opus
tune=+5
</region>

<region>
hikey=D#4
hivel=127
lokey=D4
loop_end=198393
loop_mode=loop_continuous
loop_start=53239
loop_xfade=20104
lovel=1
lpc=z/BfQfZ0AsLS7ANCQBqtweujHEEBZgnAdCEBP21rHcAwbRBAz6aCv7dY/b4aW8Q/VuRyPVyRhr93gFq/6kUNP9pQ1j/JXV0/cheNvy9X779M8P0/UvBzv56vYD/rxhO/
lpc_rms=-63.23
pitch_keycenter=D4
sample=Trumpet_muted_sustain_MF_D4.opus
tune=+2
</region>

<region>
hikey=D#5
hivel=127
lokey=D5
loop_end=198393
loop_mode=loop_continuous
loop_start=53239
loop_xfade=20104
lovel=1
lpc=xb01QSnC6MGmDxpC9+cTwknJ1kHTx3TBlj7vQAVnKsDdWdg/4FkkwIlxO0Bv2UHAWPSgQB1B1MCRPr1AQkliwMm9Bj9j1odAHafGwBbx/D98dXFA0gD4wNWK6UAOPArA
lpc_rms=-59.78
pitch_keycenter=D5
sample=Trumpet_muted_sustain_MF_D5.opus
tune=+15
</region>

<region>
hivel=127
key=E4
loop_end=198283
loop_mode=loop_continuous
loop_start=53209
loop_xfade=20093
lovel=1
lpc=6hADQgksmsIWMZRCAAY1wlYHoEEpvdPAFPmVQP1StMCthWRApuSRv//9/b4A2B5AaIK2P5IuXMAy4NO+osqRP+ZBLkDt/Yk/t9dQwLQpH8CLnh4+wUPCQPTR78BTx29A
lpc_rms=-54.67
sample=Trumpet_muted_sustain_MF_E4.opus
tune=+5
</region>

<region>
hivel=127
key=E5
loop_end=197819
loop_mode=loop_continuous
loop_start=53085
loop_xfade=20046
lovel=1
lpc=9RTUQP4Oa8EnwJxBex2fweepg0FsBjLBKzHMQB0+m8Dru4dAX1BEwNaJ/D74IaI/hw3av23X0T+Gtg6/IRLZvZVMrzwMyqI/zI8gPne257+RSklA2eFvwFQQY0B1gPW/
lpc_rms=-57.39
sample=Trumpet_muted_sustain_MF_E5.opus
tune=+3
</region>

<region>
hikey=F#4
hivel=127
lokey=F4
loop_end=196888
loop_mode=loop_continuous
loop_start=52835
loop_xfade=19951
lovel=1
lpc=TWu8Qe28Z8JEdXFClWscwssRjEF5koTA5dcWP/z/lMCqEpRAEAiXPpet8b9b2hdAt1Y8Pz/fV8DHIfI+0Ey0P3zvuz44OeA/0YmGwKUcQr26CMI+5TKfQFRwr8BySgRA
lpc_rms=-56.47
pitch_keycenter=F4
sample=Trumpet_muted_sustain_MF_F4.opus
tune=-9
</region>

<region>
hikey=F#5
hivel=127
lokey=F5
loop_end=197998
loop_mode=loop_continuous
loop_start=53133
loop_xfade=20064
lovel=1
lpc=SNMYQXLNhcEn6XxBKGFWwZ9bLkGBHqnA9zk9P1lFDsDs+CxA5XcswGXBKkCdG5q/HhijPugSKz8QZ76/36JbPnEGHkC/zeg+TZGmv34Itb8op7Y/73xRPwM1pz/1KSzA
lpc_rms=-56.47
pitch_keycenter=F5
sample=Trumpet_muted_sustain_MF_F5.opus
tune=-19
</region>

<region>
hikey=A3
hivel=127
lokey=G#3
loop_end=196819
loop_mode=loop_continuous
loop_start=52816
loop_xfade=19944
lovel=1
lpc=5IfoQop5esNvVC1DIAadwu5nO0KOmhHBAHhqQa4eXsFWIvdAzx/swM5CjMDYi/BAP+gnQQhuIsEtcEjBQ24CvzV+P0EGzixB7KUWwJPnm8Gv8BO/dbEwQTiAl77kFRa/
lpc_rms=-48.93
pitch_keycenter=G#3
sample=Trumpet_muted_sustain_MF_G#3.opus
tune=-15
</region>

<region>
hikey=G#4
hivel=127
lokey=G4
loop_end=194596
loop_mode=loop_continuous
loop_start=52220
loop_xfade=19719
lovel=1
lpc=wOpWQb+xCMIWxShCTw8LwmVQnUG4PsnAQdieP+98esDS/dFAceu4wJh6aD8/0ytACVj7v0yohD+UZgbAnCi3P3SkYj/O5Qq/i5C8PORKrD6Ay6G/YEoqQNOqA8DoKRk/
lpc_rms=-59.09
pitch_keycenter=G4
sample=Trumpet_muted_sustain_MF_G4.opus
tune=-1
</region>

<region>
hikey=G#5
hivel=127
lokey=G5
loop_end=196356
loop_mode=loop_continuous
loop_start=52692
loop_xfade=19897
lovel=1
lpc=ppGQQDza9cBkr/BAIFzHwHgPlUASVxvALKXyPxQfAMARJ80/zetzvxRioD7CRnE+A+fEPvM4Ij9XeGy/ntdMPo2jLL4d+68/zJyWvszrcztn82K/HBCJPx3VOL+y6R8/
lpc_rms=-56.80
pitch_keycenter=G5
sample=Trumpet_muted_sustain_MF_G5.opus
tune=+8
</region>
</group>

<group>
group_label=Group_87-127
lpc_hicc1=127
lpc_locc1=87

<region>
hikey=B3
hivel=127
lokey=A#3
loop_end=196495
loop_mode=loop_continuous
loop_start=52730
loop_xfade=19911
lovel=1
lpc=gFHyQY8AncLowq5C/EyAwrWkEkJcYWzB0EOKQFlvwcDyKgxBqGGWwBZ4HMCR3a1AUthKQFKA6MDDNFk/sBdKvw7/SkDxGUk+Z7xOvSzCasAWC/q+UnYEQZmV+8BUfCFA
lpc_rms=-52.76
pitch_keycenter=A#3
sample=Trumpet_muted_sustain_FF_A#3.opus
tune=+1
</region>

<region>
hikey=B4
hivel=127
lokey=A#4
loop_end=186134
loop_mode=loop_continuous
loop_start=49949
loop_xfade=18862
lovel=1
lpc=KwWGQMlW2sAfut9AgY2fwJERxD8f1BW+v5ohvSbxxL8CZx9A2d4VwFveDUDaPhfAnzUgQOr8qb+s60s+ROGZvtLKWj/yzSq/p8NoPx4byL5MT7W+4lURPyjWjj15LHK+
lpc_rms=-49.65
pitch_keycenter=A#4
sample=Trumpet_muted_sustain_FF_A#4.opus
tune=-20
</region>

<region>
hikey=B5
hivel=127
lokey=A#5
loop_end=152853
loop_mode=loop_continuous
loop_start=50036
loop_xfade=18894
lovel=1
lpc=EgheQPMEH8Cm8iJA2XrbPSLhmz6au8k+A8mGPzom1T1V/Rc/oFNiP9WfMz825Em+Hq6ZP8tkZD+0Uoi+Nd56P2UzZT9YcC4+FckdP8fJNj+05wo/LRkHvpYXrz/9cAU/
lpc_rms=-45.88
pitch_keycenter=A#5
sample=Trumpet_muted_sustain_FF_A#5.opus
tune=-13
</region>

<region>
hivel=127
key=A4
loop_end=195914
loop_mode=loop_continuous
loop_start=52573
loop_xfade=19853
lovel=1
lpc=HA1EQPfmmsDhrplAGUZewEx3/z9tXPu/jMMCQG7CJsB0Qt4/VTLHvk9TAb/WBwQ/ho73PirDTr/BecE9SAUfP9WnUr+YEVo/KAvgvd6T5b6oAk4/aRlWvkVMhT0qsCa+
lpc_rms=-54.78
sample=Trumpet_muted_sustain_FF_A4.opus
tune=-20
</region>

<region>
hivel=127
key=A5
loop_end=178913
loop_mode=loop_continuous
loop_start=42888
loop_xfade=16195
lovel=1
lpc=AjZIQNpf/b+ptRdAmL9Yv7vNVz/SbXg8Dy3vP8YyX79gUS4/uCwLP3Yywz4DN0I/L+5yP1TU4L6zbBY+FChHPzNSe7zQG4A/tcIUP0dYf74Xi949lkfVP6T6EL/9oIg/
lpc_rms=-43.20
sample=Trumpet_muted_sustain_FF_A5.opus
tune=-1
</region>

<region>
hikey=C#4
hivel=127
lokey=C4
loop_end=181947
loop_mode=loop_continuous
loop_start=53041
loop_xfade=20029
lovel=1
lpc=KSnnQI29Z8GNiYRBf25+wVAtMkHWgQDBJKfyQPKw+MCYRuFAaaajwMlL5T+Hnta+SPbhP18AC8Bx9oQ/nTepvfR5ar9e88k/5/Gbvmprnb84X9s/vWCcvxLXyz5hVT8+
lpc_rms=-55.12
sample=Trumpet_muted_sustain_FF_C4.opus
tune=+21
</region>

<region>
hikey=C#5
hivel=127
lokey=C5
loop_end=163720
loop_mode=loop_continuous
loop_start=43934
loop_xfade=16590
lovel=1
lpc=1Y0zQCUiOcBLK1VAkQQSwMLclj+6uqK/aPMEPxtdGr/pdru+DaYUPxuwnL/rPI0/q3uTvkfUuj4SPnI+Dsp7PuYRK75MoU4/B+ATv0kjnr01ibk+7SCevsPIbLtNsRk/
lpc_rms=-48.58
pitch_keycenter=C5
sample=Trumpet_muted_sustain_FF_C5.opus
tune=-5
</region>

<region>
hikey=F6
hivel=127
lokey=C6
loop_end=169673
loop_mode=loop_continuous
loop_start=41763
loop_xfade=15770
lovel=1
lpc=UfSsQIPBYr4FZm4/Wz2Gvo5ZTj4b0r690joHPyZSHb6Sdws/ixtIvkSODT5W3wM+y5qYPuQQfj6SRTA+yZkHPm9WYL6SXyA/GMNevs/KJj/tabC+o84KP1CTmr8GFILA
lpc_rms=-43.98
pitch_keycenter=C6
sample=Trumpet_muted_sustain_FF_C6.opus
tune=-11
</region>

<region>
hikey=D#4
hivel=127
lokey=D4
loop_end=190668
loop_mode=loop_continuous
loop_start=53239
loop_xfade=20104
lovel=1
lpc=FGysQJgKQcE9RYBB4wCIwQZ9b0Gc3kfBnDcnQX+wEsEE6O5AOlDDwOF8gkBsphbAaTi3P5BMZL+RL2s+V7MAv/zEIT+tRkw/B1s+vwjEM74EYbs/hQ8IwCZ80T8aKw2/
lpc_rms=-58.52
pitch_keycenter=D4
sample=Trumpet_muted_sustain_FF_D4.opus
tune=-3
</region>

<region>
hikey=D#5
hivel=127
lokey=D5
loop_end=166643
loop_mode=loop_continuous
loop_start=44719
loop_xfade=16886
lovel=1
lpc=K9YlQNV7I8DQSDpAUrAAwHRDiT8Z9j+/AAgfPzurCr8drSI/ZxQYvywWPD4w6hi+rdyrPn0bsr5BwoE+lJjLvaA6MTyt2WA/+Kn2vujeFD+2P2U9gyCNut8+Nb6DVj8/
lpc_rms=-49.25
pitch_keycenter=D5
sample=Trumpet_muted_sustain_FF_D5.opus
tune=-7
</region>

<region>
hivel=127
key=E4
loop_end=198393
loop_mode=loop_continuous
loop_start=53239
loop_xfade=20104
lovel=1
lpc=2Is3QFh/Y8Am7FZAwN5KwHecxz+tHMu/KjG2P+Y20r/GdbQ/Ao+ev3SBcD/+qFW/wjWcP3wxpL8KF4c/NI8iv16u4z6tXus+FUQYvl6ekr5xSIE+fIgAv9irpj6hdzu8
lpc_rms=-51.23
sample=Trumpet_muted_sustain_FF_E4.opus
tune=-13
</region>

<region>
hivel=127
key=E5
loop_end=191933
loop_mode=loop_continuous
loop_start=51505
loop_xfade=19449
lovel=1
lpc=Az0sQLKOLcCupUNA8u7Yv44cID8NVgu+uvEjPkGGG783ICs/z1rTvq4mwb23zCM/x6quvcucsz05+9A+4anPvlYKAz63Ehc/+JxSvsisRD/wfre+QI7yPiVLpr7i5wc/
lpc_rms=-47.72
sample=Trumpet_muted_sustain_FF_E5.opus
tune=-15
</region>

<region>
hikey=F#4
hivel=127
lokey=F4
loop_end=181431
loop_mode=loop_continuous
loop_start=52353
loop_xfade=19769
lovel=1
lpc=W2IFQWXHlcHlvr1B8Y/BwaX+oEFGK3bBe5clQfUM3cAcMolAFetLwPnl7T++f3u/1EgOQPCOzr/vCNQ8CuiNPyLbGcAJJZRAhHCxwPVUgkBEUJu/lR08vzASkz916/6+
lpc_rms=-52.77
pitch_keycenter=F4
sample=Trumpet_muted_sustain_FF_F4.opus
tune=-14
</region>

<region>
hikey=F#5
hivel=127
lokey=F5
loop_end=152660
loop_mode=loop_continuous
loop_start=40966
loop_xfade=15469
lovel=1
lpc=QYE2QBu5nL/nnxBAU7aov55GmD991es+9bLtPV6Lf75QCiG9n5Gyvvkbnz7G77u7Z2IVP2aGCj5JJas+FueHvhePED8t6ZU/BKsOvThnGj9E+N6+rqBaPzy9Nj9/ls0+
lpc_rms=-45.33
pitch_keycenter=F5
sample=Trumpet_muted_sustain_FF_F5.opus
tune=-22
</region>

<region>
hikey=A3
hivel=127
lokey=G#3
loop_end=190601
loop_mode=loop_continuous
loop_start=51148
loop_xfade=19314
lovel=1
lpc=PZKRQjDfOcP9Wz9Douj4wrGGgkL3J7nBim9PQTF3ocHsL4dBUdw5wWY/pz8gozVBJSyYPwaXLsFq+BNAvf+RwEP6Y0BFCCtB5qOGwDTyR8Gg97c/JO2eQd1UqsH+JwNB
lpc_rms=-47.51
pitch_keycenter=G#3
sample=Trumpet_muted_sustain_FF_G#3.opus
tune=-2
</region>

<region>
hikey=G#4
hivel=127
lokey=G4
loop_end=197489
loop_mode=loop_continuous
loop_start=52996
loop_xfade=20012
lovel=1
lpc=PbgzQDetgsDs3n1AyBxZwAr9EUDMws2/bZKuP49R1r/twec/Wv34v3FUgT9Crgm/0B7RPgf/ODs2sDm+FI7bvk1zST/g9he/zsBzP7uVUr9LbFI/btogv5X4CD+nAgG+
lpc_rms=-56.49
pitch_keycenter=G4
sample=Trumpet_muted_sustain_FF_G4.opus
tune=-10
</region>

<region>
hikey=G#5
hivel=127
lokey=G5
loop_end=158600
loop_mode=loop_continuous
loop_start=42560
loop_xfade=16071
lovel=1
lpc=lspgQMXqHMD3xEpAzJr7v9B03T8cnjW/0nJvPyptMb/ir40/wbwiv5y/nz52dky+fzTavdccqj8KCTC+Q6kDP/+9CD3PCqM/JQ3IPG3XID+vrzq9LFq4PbtABT+ad1q9
lpc_rms=-44.54
pitch_keycenter=G5
sample=Trumpet_muted_sustain_FF_G5.opus
tune=+2
</region>
</group>